<svg xmlns="http://www.w3.org/2000/svg" width="626" height="626" viewBox="0 0 626 626">
  <!-- 纯黑的书法线条 -->
  <path fill="#010101" d="M 201.87,67 c -0.16,-10.49 1.81,-21 2.15,-31.5 c 0.63,-3.82 1.21,-7.64 1.74,-11.45 c 0.99,-2.07 2.55,-2.66 4.68,-1.77 c 8.31,3.66 22.39,15.07 27.06,22.43 c 4.57,17.39 34.22,41.08 49.07,51.16 c 2.96,2.22 12.13,6.15 14.2,7.81 c 10.1,5.17 18.8,12.11 28.98,17.08 c 23.79,18.97 42.69,44.05 59.38,69.43 c 10.28,17.61 17.26,29.34 17.41,50.52 c -0.54,29.57 -1.3,64.32 -10.1,92.54 c -15.31,38.67 -30.8,79.29 -40.28,119.64 c -2.45,10.95 -3.35,21.53 -4.46,32.61 c -1.11,9.44 -3.32,16.43 -6.65,25.01 c -5.41,26.17 -2.57,52.77 -8.1,78.99 c -0.56,2.06 -6.53,27.07 -10.63,22.66 c -5.6,-9.62 -5.21,-53.2 -6.15,-66.66 c 0.17,-28.39 -1.63,-60.77 3.58,-88.42 c 2.76,-15.22 6.71,-30.57 10.28,-45.65 c 8.72,-31.98 16.72,-63.44 22.81,-96.05 c 5.92,-39.47 9.8,-69.17 -7.85,-106.84 c -1.01,-1.96 -2.51,-3.8 -4.48,-1.47 c -3.61,3.79 -6.5,8.23 -9.89,12.06 c -24.93,33.18 -46.67,68.08 -66.45,104.62 c -1.28,1.48 -2.26,3.12 -2.94,4.95 c -12.21,12.88 -19.68,43 -34.61,50.42 c -15.81,4.54 -9.95,-12.29 -6.86,-19.94 c 12.47,-24.59 24.93,-49.14 37.39,-73.66 c 12.44,-25.8 24.42,-51.14 34.23,-77.95 c 5.4,-15.12 1.44,-37.55 -13.59,-45.88 c -8.11,-5.56 -3.11,-13.34 -13.62,-17.28 c -8.35,-2.3 -13.88,-4.18 -20.86,-9.14 c -21.33,-18.7 -45.72,-36.91 -45.44,-68.27 Z" />
</svg>